<svg width="1287" height="672" viewBox="0 0 1287 672" fill="none" xmlns="http://www.w3.org/2000/svg">
<line x1="0.972222" y1="271" x2="333.972" y2="270.5" stroke="#E79759" stroke-width="37"/>
<line x1="363.998" y1="358.5" x2="1060" y2="358.434" stroke="#E79759" stroke-width="37"/>
<line x1="1041.5" y1="41" x2="1041.5" y2="341" stroke="#E79759" stroke-width="37"/>
<line x1="759.501" x2="759.501" y2="346" stroke="#E79759" stroke-width="37"/>
<line x1="1041.5" y1="372" x2="1041.5" y2="672" stroke="#E79759" stroke-width="37"/>
<line x1="348.501" y1="82" x2="348.501" y2="289" stroke="#E79759" stroke-width="37"/>
<line x1="759.501" x2="759.501" y2="346" stroke="#E79759" stroke-width="37"/>
<line x1="348.5" y1="285" x2="348.501" y2="458" stroke="#E79759" stroke-width="37"/>
<line x1="686.501" y1="373" x2="686.501" y2="548" stroke="#E79759" stroke-width="37"/>
<line x1="686.501" y1="535.526" x2="686.501" y2="394.474" stroke="#183550" stroke-width="15" stroke-linecap="round" stroke-dasharray="20 40"/>
<line x1="385.495" y1="357.566" x2="1015.51" y2="357.566" stroke="#183550" stroke-width="15" stroke-linecap="round" stroke-dasharray="20 40"/>
<line x1="1076.5" y1="63.5" x2="1134.5" y2="63.5" stroke="#183550" stroke-width="15" stroke-linecap="round" stroke-dasharray="20 40"/>
<line x1="17.4999" y1="273.018" x2="313.502" y2="273.018" stroke="#183550" stroke-width="15" stroke-linecap="round" stroke-dasharray="20 40"/>
<line x1="347.001" y1="441.501" x2="347.001" y2="98.4993" stroke="#183550" stroke-width="15" stroke-linecap="round" stroke-dasharray="20 40"/>
<line x1="758.964" y1="329.501" x2="758.964" y2="14.4994" stroke="#183550" stroke-width="15" stroke-linecap="round" stroke-dasharray="20 40"/>
<line x1="1040.53" y1="653.475" x2="1042.48" y2="62.4752" stroke="#183550" stroke-width="15" stroke-linecap="round" stroke-dasharray="20 40"/>
<line x1="1268.5" y1="554" x2="1268.5" y2="672" stroke="#E79759" stroke-width="37"/>
<line x1="1142" y1="59.5" x2="1060" y2="59.5" stroke="#E79759" stroke-width="37"/>
<line x1="1055" y1="653.5" x2="1250" y2="653.5" stroke="#E79759" stroke-width="37"/>
<line x1="1129.5" y1="59.5242" x2="1071.5" y2="59.5242" stroke="#183550" stroke-width="15" stroke-linecap="round" stroke-dasharray="20 40"/>
<line x1="1076.5" y1="653.5" x2="1259.5" y2="653.5" stroke="#183550" stroke-width="15" stroke-linecap="round" stroke-dasharray="20 40"/>
<line x1="1269.5" y1="626.5" x2="1269.5" y2="568.5" stroke="#183550" stroke-width="15" stroke-linecap="round" stroke-dasharray="20 40"/>
</svg>
